<mxfile host="65bd71144e">
    <diagram id="YpKwqSE4E5X9UyadTOjz" name="Page-1">
        <mxGraphModel dx="336" dy="135" grid="1" gridSize="10" guides="1" tooltips="1" connect="1" arrows="1" fold="1" page="1" pageScale="1" pageWidth="1100" pageHeight="850" math="0" shadow="0">
            <root>
                <mxCell id="0"/>
                <mxCell id="1" parent="0"/>
                <mxCell id="2" value="" style="shape=stencil(lVlJchw3EHzNXCsAFNazLP9DESLNCdOkgqIs6fdKeALNRqE7Zd5m6QRQW2YV+qIfvj58+nJ3Ce7r68vz33ffr59fHy76xyWE69PD3cv1FZ8u+vGiH+6fX+7+enn+9vT59v3Lp/5k//TP8799hR83nHqJraOC+3n7xWcp/r9f/rwBHq9PO0Co4sME0CwuEkCWkCdAclLquwBNilJAnW3ITbI7B2iQkCZA9WOJQ0AMknUGpLHEIQAm5rQAyJFgYqgzQEUJIBdJM6A0CihJ4mxDUcnlHACflBmQ4WiyQ63i5iMllUYiDZ/EGRCjOGZDkWKSD6Ek2ZqTtBkQVFIgcaiS5sB55BLZoSezswXE3BrVxsGnEcrjbHXiZy/5KoVkK05sjc4cgDDNNmiRSrzkEabZhlgl8yMZ1kjwEmONhWZyoOmtVcICoDWdxM+RTmVYdQzIEmdeikWUBC6igOYd4pYsxzbooK0tDlUqI2MdTtx24KyBzFHDrRAAQmTBSTUkoIOpjm2ItoBKHG44BiARDJGhaBkANsx0D1poJHDaJM1urU4iKVEA6krGpB76Dn4GZPGZ2hANoFLZ1U2VB6D9Jpei1YfmpbEdwKRzLjX8wmS3jTDtdsjES2EL084Gz1uHaAKHJRgATLrqNIk0AHaHMLLr7EhuppnC9QFG6+xWZGtgXmqjUdjVA81Wvwj7VoNnNFPqAiBu7R2eX47E0rvYAupGs2xdjW5cFFGis1t74JjRzRZQTw3GGqBe08IVXkCI9JreDJAGqewLiOuDkd3flChah9zsDo0R2XsBkGkTtzDy/VgTbYvYZZ0dyDbe0KtKigHSYTQ6iCfP+0Xf4OREUtuX8ffWXBVK9TiS0eiAxoQVT7TF00WYdZTxYAfas4bFhkpFHZ2RGQWQu4UcKXtLkzgkyyMAbGMSKeuhUa8zoDcmpBawnjc06UbncezWMlqpDZCp0VoXinFjlD2rtrYCmDaEpbmqYzg4a9SNRmPoY11xHUKwebXQ3FObSdkNNx8+j8ZrXh/zUyLruzEP7lpoRvPB8hF8zJr6bG8CAu+HfRA3G4zhqbII1NGxbBEYw9ZZg2HEWUdPcyYiZoZ2dGTA2OOSeZ6N3Cgb0217yi2oQnPzkUbzcDzSeyuzjQoCKsQMhsjxTBwE1T4IMTlRU7sDjsT6qVZs1wkmYAOJd2ta8yuu1qzyo84YY7c0LuV2d2KeXd60McvuWjbWFFZvu5e6ie9ppOfSQfdSuCaY5hyeZlcr/dZt5tOdp4+rwVnZgadZ+YBOimmQMr3jQvmqyW9H52Ff7XVP9zSb6TFqmnnYjU70GLBcivXbRxII7GBkJ/Jk6jbM2aecJcMSB1Q1MxqAYgCBzsO96A3AU3GGlESbTOLYLKlDyd6YjM086IXr/Dy/Q+taZYZbOiJBaJJdn0l5/zuY8zPa6/O/sw5iWq7O3ochBCwrMNmqCYEOSjgDGJN9oi8n3v36438A8OHtbcv99fHx9rJm/799O4Ofbm929OMv);lineShape=1;" vertex="1" parent="1">
                    <mxGeometry x="178.773285662621" y="92.10000955410331" width="2.957151062408438" height="2.41088852385469" as="geometry"/>
                </mxCell>
                <mxCell id="3" value="" style="shape=stencil(rVjZbhpBEPwaXlsz03M+O85/WDKOURxjYZzj71MbMninBxeKlDdYutg+qs+N3rw+3r1sN8G9Hg/7r9sfu/vj40Y/bULYPT9uD7sjPm30dqM3D/vD9sth//Z8f/r+crdILp++7b8v//DzhPNZgl9Qwf06PXGS258Hn0/yT7vntXwVlwb5INUR+SY+D/JJcqHyNQ7yRVql8n9/7vLei+MKpdEAHyVlanEwgCo5EQBcOpoMHzUlALU2wGhlQfCS3QBQLy1+DEAQyigPHUkUshQd5KOTRJyausvP8vCp/1g+ShgNjnAyMThKNiSCvSQEsG7UJyWpRL5KGvXJTlygAdDRQTmKEoMXjrURABKRiIFjcTShBJoI4FgZbShFPPEpOBbDAKjIHPIGDTaVK6wiLALJ2uilWiQTt0bfa08HNNfL02UAiGoAQZQRNfQwnQFIPgZA+TFvANlJ4LL2TFkBKsu1arO/5Z7eFwElTjYg0qS+FNTUbAGRlDwoYFVC4Ag18HOb3lBYQapS1QIaoUZrk1trT/KPAG0CJJZxztkqBsQVncpYVvEkMDc120rwhIUaCsRqAZX5tfRetgKwsoFQp8mGRsoG2JzDpBIDRKl+MpokBABheoMygPYwrQCOlI0FYNiHakwyaFEpWwCNdOw5v+Y3AyQpzgIKD1xOFnAlR3Oc3sC8VCcuFdpFlzBNCeR5jtYJEFnfvZijhbEPr5gyyLPa1yROOcpmn0WBKeUKo2u5oBKd3rItZSs//CdEmQtyo4sAxpEypXVgjbH0vrkuyCQS2dsBZaEwUQlDnhmyliQhb4iItVEp0bk4am8hq/GBEVZRJoxbPe3Vqn0QPs9MtSt5eYybBsWa6Cga1FZ8zH2sV2MUrWNGFF6aMOyqGUXhJbbPuL4tnKfjRkfRYjsExm/GjCjRjOtOlO18dv5JWRz5f9fXtbN8oPvDVMWw/3jCO9cDtNqvAqnEQeIYYuxvnshHOyBqohtrsUcD7J9ssG89/KsF17ErgLdDBkxiDRortMmCZYFiSzooMZrg+cq6AEYblkMD41C0SzePMUww0yRiwOSD1NFHeu1oYLqzpxyCvDcGX9uJw0hSRzsz5E1SOn6HQZVKRp7mcLBHAEcXBsgXqw+rQYiXBivPCKS9ya/kmT7RHqocXTx9Em8veZ7Lm27p6A3Gn+n4Lh+Zf/71snhVHh/ez5gPu6en0xV0/bs9e+LR6WSqt78B);lineShape=1;" vertex="1" parent="1">
                    <mxGeometry x="175.96672176790202" y="96.59040933001754" width="2.2243081488440892" height="5.856652943814221" as="geometry"/>
                </mxCell>
                <mxCell id="4" value="" style="shape=stencil(7VhJchsxDHyNrigQ3M+O8w9XWY5VUSSX7Gy/DyYqjoagphWfcvFNC3pIAI0GBht/9/r88LLdCL++nY5ftz93j2/PG/9pI7I7PG9Puzf9tPH3G3/3dDxtv5yO3w+P5+8vD5Pl9Onb8cf0hF9nXKQsE0j49/kHpuD+/vD5bL7fHRbmLlKpnX0klnV7EYqhsy/E4PlSSXxn7xxJXAf4RJx6QCSp64DgyfU3cpVKXgdEJuYOMPkMrhQTSe4AXoMKgpSEpE+CehWADylTLR0gCAW/DsjepjkU8sCHXG1YYyDP64CiJ/RXStzCcB2QG9FmQKQEnK5Mrs9DZooI4Cj0PuRIocATUp+4wtjpTNkAAmVAb41S7PNQCmVwgubBRKkKMXBaXTRcqsqlAAHc+1CVXehKgWKf6VooJki+0ldcreRAPWSxIqOACLiUHeUBgGpamZN6Ljmey/x6yVXywxEVeJ0KyeB1BiWnRS1sAR7QNSXywSYCea0Flp0FCPIhNpFYcAMlQgFG+pR9BTkdm9AtAA4JkzSuzQBHBUnfENaiPQbVqLN0Lak9Yk1nXO9DTk0MrwOktbQFwKETPKU+cVq1CSSuxhbEBSCiExKlMpwAZEOZY2RDfWBAjanmB6czSNxUwr2SZUy+RQnPiAL7qB5hvZ7LfM1ro0zaIRwCZNt4FVBwIqS/kvIRFUQNwwkO8lvJJMOVKsqcozoAAmLf/LxFWDMQ/MpDpy5QNiZAX6PKjYrIxO3vBQANcZOqDHRFs4CG1ZkTIlaBQGkARBQlFYmhRlHjVfKNJ5Qb9PbW6VsFNOQBTX1T0zRaWZpXqypgTqhYK6vVewVUpGTvBWj/MMNDvTHqBgoG4KH0fcxk/zqT2bh+zGT/YSZTp6MBeKqgBSmZjA/6GgQByb4GlQjDqh3KNjnBb2bSLrBQgYTe/QI5A0hwFaLvfsGIq5YIyLT2ccMlpSOjoi6WrenGbOzbFDm/5asPAKAF5HsuRYbDRpI2ds6LhwAXD3qB2FPDF9gVI1vyeYETll4g9CdIhtTwuYn1DBBIPs92rHQ6hwKABPty6QKc7/V5bJZYShYEcO3Glz0cUplhdTL3i6vmbOcGD8cGbne9mCNeaxfowylQ8MZ93Y2nm7nNNQaumJvIuHa7FXOzqWOcWDtPaahAPUrbK17MHWJyy/nFHPXXYCPDUOBC672Ly6BKf9/m+aa5frgsuZ92+/15R7783y7F9afzQt3f/wE=);lineShape=1;" vertex="1" parent="1">
                    <mxGeometry x="178.70177800936398" y="99.07662748072144" width="1.639509426749113" height="2.7565677182667034" as="geometry"/>
                </mxCell>
                <mxCell id="5" value="" style="shape=stencil(lVjZctswDPwavWJ4k3hO0//ITJzaU9fOOE6Pvy80KhUBkraTN9nCijgWS5BDfHg7Pr0ehuDe7rfr98Ov0/P9OMQvQwiny/FwO93laYiPQ3x4ud4O327X98vz9Pv1abQcn35cf45f+D3hgqfmR1Rwf/79Qzz98XWyP58uC3ufqWRlXykg+0DRKXvvqVQAcFSaBmTKaR/QqOgFgqMU9+0LVRNwoQgiyNSKso+BWoP22v/IPcV7/mj/UyF2KN7Ayj6nnuLthHpySQGKpwACkHx77VGplEHJJOFZp6jGXpRtQKWoc1QbVVCzmKhp1rVIDsSQ5LWOoZX+ie2qecoawI48ABTXHZgBoTNrG9Bs0JwgoEqraaZyJgZZap6qrgNjaosDJdgVEgKIS8UCUJbEgcorAKAGV9s+AghohUYtWUBBMTDlbLPkAwRwsgDE1hFQNWAm/B6gmBUaORRDI24WgERy/F6xAEZBl9UKTB5Tw7ToCECVTitqSCmBzHDsurgApAIBRiqlDmhzE4ALFoCkUgDetGihgqgRrVQKwKE6pN7BC3rDSme74Y4NhCudVis4hi2a46qnUZZmbi5lBlWaKa4ASPkEYMlXKIOgvXN2g5CwPPbJ0rXCfV0AwaSpYRWQ1+uGwCrwOUBzdoNY5GF7D4qrqCUsACiipas0oY7IdaV9Qg6wQmqrTSvAFWT+MlE37k5uAzx5A8gw6CBCo2OQTKOJSUYs1j0nmz0SfD8PI/NM1nre9qZQTT4Z+hiQL1iHZKqsaKrsHT9PrdI+oAiuJ3A5FQP/V+0pU3cBWu8siyQDFQhAoGA6gaFgJCuSPnUV3JvqNUmlgkiF5TXrgmW4L/hKTtu7fjDbs8/V2Edk37q7H/Ye1Evs2foD/ed+ClzYoxZzXRQW9qCHhaBmPJf8ozOMt+daB7dZIZC3/jTkT7BajQ9hYp8N4eBhQeyT9j/Aeo0NYM/9GfDhs/cE/7eXh49LiZfT+TzdaSzf20sM+Wu6AImPfwE=);lineShape=1;" vertex="1" parent="1">
                    <mxGeometry x="180.8940288835219" y="98.97089140765863" width="1.8248272433896906" height="3.1563151773032567" as="geometry"/>
                </mxCell>
                <mxCell id="6" value="" style="shape=stencil(lVdJchsxDHyNriiuAHl2nH+4ynKsimK5ZGf7fcAoHA1BTad8G43QQ6yN5i7evT0/vO53wb29n09f9z8Pj+/Pu/hpF8Lh5Xl/Przr0y7e7+Ld0+m8/3I+fX95vPx+fWiW7enb6Uf7wq8LLlQq0lDB/b688ZTy3xefL/bHw8vKPgaKabBnKm7bPjnKcfy+p5oAQCgZh5icbANyJjeeoCHEsg3gSHk8IQgFvw2QQLkOgBhJwjageJIRoGn45+RtQKXII4ApAkBNlNwAyIEYuFRL/94CqOTqNsA7dXk8gjNsjSrkwgAQ3xN3G+DIj2kSIQbN1PJaBkCJFECpxfXmXACl9/vtZqoUxvau2i0g6FSJx7xqGjw4QWMu1r6iOhBXa58YOERpsoet1xO42DPsba99JhaQQQ282CorALVqG98JUEAIGrOpssYcQB/pvLspSQyKplkys6DzFFAM0kdlBRB0Qp7qpq2IAErEwQJQDH6udKWKKh0ti6044fZAW45pJwD7TDFPIYDdEHpG1jkCjeEoxakIIOKJ8dQezbInZ8hCOhvcXp6TPzobYJaZqrHXQQCLSlern2aTESCTOAtAlN1SxBYgqGTRUnbjIxCzBm32vwIyiEFHrRiXCmQ8BZi+VgAM+sOAPC0F1TCAI6N0ibMAQuf9rbUT/QDQxRZAHXjq7RKgcOPSR2u1nNGwibLwOA26/hMCaFrHGFRgZBCDsI1B13UEMagDdUyrqiRESMxWDSfc3uqAHymsCV4kb2uXE4uWTFB8NuU4qVVBCt31ZbnSwxXNg9Kq4Xm8oNtGHwunoiADgHTWWjoDrpFkd6dqIKh42HgDNWHubNLNHdyC0gf3ao4k6qQfHdTxytiGvFQfgvbxyVKR66J7q1QlW3ukjLR5bLjo8qX0ztYfqIvYto6Dd4omvIKxh+tmIYRrMyDi/ej19//2+nC9az8djsfLVX39v72b66vLvT7e/wE=);lineShape=1;" vertex="1" parent="1">
                    <mxGeometry x="183.77137383505124" y="100.1626813035702" width="0.4263116885696108" height="3.48903748107623" as="geometry"/>
                </mxCell>
                <mxCell id="7" value="" style="shape=stencil(lVnZUhtBDPwav6rmPp4J+Q+qMMEVgikg19+nN64ZdjS77eLNYLVnpZFaLe3B37w93r0cD868vb+evx9/n+7fHw/+y8G50/Pj8fX0jk8Hf3vwNw/n1+O31/PP5/vL3y93i+Xy6cf51/ILfy64ICEtIGf+Xv5hJNv///h6MX86Pa/Mo7jRPIjJ++ZZih3Mi5iyb26teD/YWyeeAbzkMgKixEgASXIeAVWC2wcgHt4MAOfFMwAiUkdAbkHbBmSpI8BbseQO8HV1IyBIrgQQpYxR8kUcA1Qp4wkBN0N8CEFfXPBSyD0ERF0BkhiWeFF8HAFILrMPSLa52AFFaiCALEY9Um1nbie3a5mzAjhWDVns9EiJ3EOxUpJ2upITSppOyK3ANwEV6W0nAIlS7fW18iGTEq25lXwDREMLCIAy+hBdK6ltQGm/1wFBIokSAGms6ZjFM6d75jRAMrREa2201QGOR2mquIRAsyjVlggdUFpJbTOfMWJGr7Ol5LocMV5EDjyZpmdCxnt2EVXS6HUxtORwEWE8oYCNWW4kzQIoEXrVTtKY36WKJY9UitgxrNVS6iuu8VYHhNZjtmkj6Y4Cr9hVg8ny6APixtp0RFjVCWAyEiUQnQ0aQPm+10vvux/5uNflynQEkyZovD5NTpB0hdpQhA/qYcxkTaOVFSCw7NP1APvEaENrjcWepZIunyu/jyyY7COxx7dhChBJCwidqO0tCSi+VfFJTans2Ov4JBqfrGt5KRwaT5u0PdNJpcmutT3J6arZC/aWyVtUjZ8OIBcAQJqeiDGwtbouAYi8aHzQACY+F8CUFIZVmZ24pefVntN5AjANs4S1aEBknbC14nWdkQPKRF2wJ4QNNW6n5+F5PT1/YB1Eq/MlotR+rstKkgK/NqVpJv521lknHeehT9ljTNUdMzclvd1s3MRchTIdJiSlCGsn4+0GWPSwUAvtHZCkmoyg/VnXj1pCLmzKbs23KumAyNOotizuAM/5NEhSPvTi3gZUrVEhr6iUd03+dUCUyko5aKehIClnR138xVC5BoBaeiwqmD1S1HJt0dnM6aj7GpQ8u7jlXtU4Uq6doDgY2cUYbA4rBp7KpI5vDLEaqRjL1/57q6GNii+ncwljIZ3BrKY9DJ50Fp70IEbbSkgA6Z3UtF2pD8hNvQCojfu3S7S0xrSethkJOJ0aV3xIfU+zAjDpH6veGQLAKg5Rz8rp3lC3ubVrnNUyqZCwYhpRwjwEiWwh1nXdaiHGyBgNxU4rN7auWrSn2gJGceSmMe64kZcwMTGqdEaPwuirbKCySe+GnW9KaxvgWiKslqtMG05LDxtpVLPWnpZvVbzWSWA94jCyQq22aJ5O+xReB0YPX6Y1xx1zqxfzgbhq9D6VL9mM3kEYPohoeWT4Hl8XsKGK3+mxjm8GkGXaVcNKUYtf0xY2O+bTszuSM0HPT5xugx6G0ELIs3/y7cxVc3z4eBH0cHp6urxHWn+vXxzhX5eXTv72Hw==);lineShape=1;" vertex="1" parent="1">
                    <mxGeometry x="186.4958199822794" y="98.8657603185928" width="2.374261542444969" height="6.79973596244361" as="geometry"/>
                </mxCell>
                <mxCell id="8" value="" style="shape=stencil(lVjLctswDPwaXTHgGzyn6X9kJk7tqWtnHKePvy9UVbIIWpvJTZawJrEAFiCH8PC2f3rdDZ7frpfz992vw/N1P4Qvg/eH0353OVz1aQiPQ3h4OV923y7n99Pz9Pv1abQcn36cf47/8HvCReIwgjz/mV4wsfv34utkfjycVuYuUI7GPpZtex/IucbeU/HAvs6fZ/tELm/bByEujb1QBvaxUGr3rx79f3MXkDLV1AJ0i7wNyJkCtx4XCnUbUDKl1uWQKANOJZNvYxYjeeB0DVRqS6onQQChKA0guzlP7qcFa9q0XmcNBKCpVnJt4EqiADKjZpI2EKJ7ArxWTyG3gARDrZ9rm6tSyQNAURdbmnRNj0LtbHbXCEOdE8U2XZWGBFaI2dKqRFewgqZObQGrWN5HBBLXLQE0I2qysQUUDOBsARGkX3Rz0a8AKDdGgOFVqIBQj1tyFhARS74LtcxSuEVrMSwVTGuca3gFEATIHa0KACWnYumk21ICALFqPzqNsm9hfU2rAIDGtaMV+iC2qEflQSvoBrwFJBTpQrlboSCntYSTBVSUfKqMn6zR2EWu4sh1fXp0AlWQKl0nNAnXaOm89ihdXcerwK6lANMhFJCwzsQO4LH0BQMoH6lr7EsOsfRZQOZOZ/DElMusjAsgQHEtqvcm0o48qCBhyu0KInAFHWiMD9qKGc0CTLVNb11TwJbURd8GTqcND+pB+7LRSp1n0NinnT+1TuvIFJDTmjntCkmzC2SrLJP2auwTNJ6wFdewzKZbuRTNsC5w7EuOXBu48TiA+660o6uLUDWCt5NohRqg5w2TGRmKt1u6+EIqjJpzs1LfzjPo/3X0qcacQci8rU0H5cV1fQEmBM9t6WaOhk+e5/GbeQTUs60YVQlQw92BYanpDXNnz50FxKmrFYadgO0QzLAUlTdvzB0QEz2IiDFnYB7mHrQyR03pcyf4D8314XZZ8HI4Hqe7hvV3e7mgr6aLifD4Fw==);lineShape=1;" vertex="1" parent="1">
                    <mxGeometry x="190.71200945504523" y="98.75548310937504" width="1.599536655661287" height="5.397252872010822" as="geometry"/>
                </mxCell>
                <mxCell id="9" value="" style="shape=stencil(lVjLbttADPwaXYnd5b54TtP/CBCnFurageP08felIEjRUvIIvikyJ1oOyeFIHT99HF/eD11wH7fr5efhT/96O3b8rQuhPx8P1/6mVx0/d/z0drkeflwvn+fX8e/3lyFyuPp1+T38h78jTip5P6CC+zfeYeLxxvcx/tSfF/GlkMtNfKFc78fnSByaeM9UHAB4ktgCCkVwouwotxkET6ncByShmlpAoioQwLXlyFHAAEMSRyogh1QpmSoIRcBSKiTcAGKkgJ6gdWuTjjJVZhuQKbWApKVER8oU2sIpDYEhwLU5aLP4CABaprYOWYnGgGKalSfe7tVBSguoFMETsjZze6QaKCPAXNcZkCmm+wAJlFqWpMCkhclVC6ggaXHTiWeAtiOY6ZootiyJTLXfFg0VGWcBaB6UJfYWIGCmVQRML+0Akp/GZXkkwFLUSssqaVA4rnaAlNYMkmadh1Yqh8KhJ2jnrCrtQNIqKtUULhOjpJOVSkmQpbRmKcEn5LDxBA+SLmHV3gnKTHWrAUqUMgCUSecWLHmgfOIpiwUUsB90RMNqptGR9AlGZrSXGEyc5hBb5RMslcpSSRaAREDrwNECBM00W6fhnU4t2ihxY6iRksVs964CIgLoAbzltQKadORsM80G6i5gJa4I4KNVAV0QghaE9UuVJ9q26zDt2MWKy6BZ2U7Dzg7VMj+0pPlBF6CC0fKzYzOCtVY7PiZY/neMkiff9tyOE1vZ1R2r52y9Bi8J4835B7MKlsI8g0s3DPh3djUrA8gi6a+tOKqfd8g82/P7AIde3yfsJsf1jZSNsYW6pTvQiIq+XoB+iKrMxcQ75MzZJuyg8KpHNaZW6wt2R06TTfmKdyBehd2YNazSKh9iz++wezQN5GC91J6KjUcOezAc1fIPzqN6HG29MjjPYmvNE0AeDNiwtKqJL0jQH3wl34/Xi6/3/7f+dBo/Hyx/t98L9Nb4rYGf/wM=);lineShape=1;" vertex="1" parent="1">
                    <mxGeometry x="189.06885658538386" y="99.92710141014092" width="0.25722371881263123" height="3.041379492477558" as="geometry"/>
                </mxCell>
                <mxCell id="14" value="" style="shape=stencil(rVnbcls3DPwavWJIgiCJ5zT9D8/EqTV17IzjtsnfB4yGxyIorvPQN8XK6uC6WOCc+MO3h7uv96cUvr2+PP99/9/50+vDif84pXR+erh/Ob/apxN/PPGHz88v93+9PP/z9Ony7693/X/2T1+e/+2/8P2CE6GgHZXCj8tfWEjqr7/8eQE8np9mQIoTQAKlAgBKIUyAkijqHlAyaZ4BlVreAypT4xnAlMATqlItsw+JJOwBLRLPT+BGVcATKqUZkAoV5LS5WGdAoAZMEh4WD0A8vLoJyBZWZ5J5BTLNZeT1AGRi4HRq1L+7BjQSkDgzILQ5rEwVRCkKNZkA2YoP+BATqQNUEvQEM2A2qUQSENaUKM9OWzkqjlKbn2DlmIFJloc8+9Dy6MHbmbaenmupFdzTPNJ0BVAAsA4Oc2k0wQAdUT8A1qKgNFrwTltYA3DaYlIczQhMXKvEs0lSBo/sAI6XrJZQxxkgzlRprAFNWnzgMIzcRanNJlk5ojzUSHkuvl7wKHG8AATmwYKosw+JMZElKnO1slIDTkv0AJtAiiaQAeY8mFcxwX7gpacZVKsNRTeBbGIE5EMbDXmYpMQoSkrRlbdVF0pc8BPI+oFBeRvPteKjpA2WRlUPQErADHDVWjAJmIvrExT5YEy6OJ3QnA4La9RBnrsGii5KCtWMARwZ9x4EmTaTnNaw4svABzMgzOVdhSICVD/Ya4HF14O4ANCc7nlNHoAmkBUfF+9DwarSVWvNIzO7jvNjN8Ep2lvU5SFQQCTQvDjpou4dH5aRpSgPcYidA5ChhOs8tyjjjBpIlvJmTDMHC10BCnpC8zLUfIBSOixOlyG5th3n8tAogzz0nnYtGsaI+X8AkqnNLao2JkEDmbJocwNpGgNgp+7dOtAETqAc/cjqHQeewMvS1GsJAxwJZIVz+m3uH0rAyBhkOifPrUnglpWLB5iagYM9eSXwDvEFkjnREW6ifWDNBoWxLd+uvDaa6/CYKlLF4qUP3ls1+t+PWBRbHTvCsAhloBpUPSVZktFWGUPwB4TcxpJ2+xErxUTYPCpeqNtsEFB4TX1ZtATzbF87xrCfQHHtgnMeV2ZkQUOdvWx4C8OutF23XUV6226OlBTqN16kjB4L/O3dOAxWPAB45tp+784mFmk4QinOEtRkA4NML7qkK1DA9Eut2i4RUHVTcRyZhoUb+7OjyAjFYWR/AHmHMezrMkfIGABFiJM/CMY4iH9XRuKkG2XEwex9lrHa7DrB7VYCb0TWatVNwtF7u152twyrQkZrvfrzipUJipCyZ4uksCqsrVzZsWLGM7ng7mIKfTD54U51JnfRmatfS5bNCq0AtjG7VawKXCfrsqU3U2FoYc1jpbja0tE0l7pUqo7D1+7S4K6HFR8/cl2W7goJL8sQ/EceFKowE4buwC9hcOauPd0a0w/BoN8MoLMPnOGoytbQ7i527Ck7H+LCekgBWJTS3HGMBboJQ5lrKSnc3Sxx/pr+Th7UO50U8mpPU/EAtFnZQE/L9RCJkn7mEh9WCMjjmHIA0uCR7d7j8pDx9fDm6yiQ6d94f2Uf3t5+fT4/Pl5enl1/79+W2Z8ub9r4408=);lineShape=1;" vertex="1" parent="1">
                    <mxGeometry x="218.912996456084" y="112.67995414108987" width="2.9565959918598774" height="2.746289658877221" as="geometry"/>
                </mxCell>
                <mxCell id="15" value="" style="shape=stencil(lVfLctswDPwaXTEkQPBxTtP/yEyc2lPXzjju6+8LVRVrQs5Oe5MlLwkssAtykoe3/dPrbuLwdr2cP+++H56v+0k+TMyH0353OVztaZLHSR5ezpfdp8v56+l5+f36NP9zfvpy/jav8GPBCVMoM4rDz+WNKiX5/ebjAjgeTjcALhTzAChMGQBSIY0jIFCp7wNyJN6EFAsAVIo8ACRTYgDIxDIAWKiBkDQQ13GHStJA0kwqPocWAKBRdSxFCgmElEjDAMiWQwSAQmFkKQcKCuvwJ4Cegy0BcjBaY/JJB0CrpVhGWi2rBGgthaT6HRgAKpOozyGBHGr27W0sKdqhrnLpAKsMKJwBmitcpQoEVMu6Xm8NgXWoncQOyJRRSNYITtONBABKojJ2qy2BcsjNN58BWgYAIS0+pILa22gd62DNwgiga11vaC3ANbTrqxeuUUY7pFVfHaAkCJDXunaAeSFgSRvpWDhrb2Qz1pteD0YDMmPzpY1EFVS66CakRBW499w5Y9JGg4Kkq3pajQY0skxA1Wla4ECZJeoKV6DdG4DHHMzaMvDW/wZEpuJMwOY06KXqJZ1t0gOSTKBjc9tECiDlKKul3AzdDABsrTwCbOgq0JtEPxKNBDTWk1IZyyZUgYvNjIwbBOirpa6M9ICg2Fr1HhYb7LsYgjeAFCgDebZMslFbRLOh+RystVEfWdJt49xoqJvHtXGHFuBQl81J5oaH+zF5gO2ACr1hdZ64wGHMJMeUtffufRtezaFXra6e9k78Tvwpw0HSVmvo/zdLBUIwnbjRlgSadtTVojuAYQbWyLwBQPXbZ/YhRQRQf8SwpNFRzxzPScH8AB2IJaxu0gEFnknMkIq7mAQSQKtdrsTdAhjOwvu3MdB5/3B9s4e/l7+Xw/G43B1vv/vLor1aLpry+As=);lineShape=1;" vertex="1" parent="1">
                    <mxGeometry x="167.91489070365412" y="144.11424410874235" width="1.3100571818947" height="1.734853756734373" as="geometry"/>
                </mxCell>
                <mxCell id="17" value="" style="shape=stencil(lVjbUtwwDP2afdVYtnzRM23/gxmWslPKMgu9/X2V7jjESnIobyHLiW5H0rEP6ebl4fb5eIjh5fVy/nb8dbp7fTikT4cYT08Px8vp1Z4O6fMh3dyfL8evl/OPp7vr38+3039OT9/PP6cv/L7icqLCEyqGP9c3XIjbvzdfroDH09MCUJhaGwApUEoA0EhGgESqsg+ojVgHQBYKFQAitTpaSBQycCmSqI9BgUuiFMYsxUo17AOSUMyjBaGk+4BodXAxKDUEMI9HCyVTAy7FQiIDoGaKDIK2JI5ZssoIqHSef54BlmhgoQZqo0slUAWFq7WHuKg0YmstpGMMVjgUQ1nFYIkuIK3GJY6jS40UBG0Ax6UcKSOA5WS0kDOkxlQHZ6FRQYBMiX0dCnApc+/gGcAkBXCpeS4ZgEGlRaiOdchKFbF1ndZKEQQtgaJLqxCDIZCU8thxOVDGFkIZqVEpAPIJ9xAX9EY9bVlKjnxMEYxKc6CMAIsKUoNXg0x73rYBQm0FUARoPSeLGFCljZviRqXAMWNU0+DrUNEQiH2ozJXmnug9C3F0aUoDaiBLorNQ+yzcBhTf05aGACafDRUdyWdOJtRA2ttlCQAWJFNV7xK0YHvaddy86vcaqI6Fs0kVwdSYyDzOJSscaqAPAyytruMqbIeSfKFD1x7bC0v8SrQyA3+a+BRZLwB/NPp+ZiM76AWtvsoxwv3GYfZ4ngAFCg1tnnnvrFAVrxAnRQe6p9Ue41w16TJ2T4OmEWCJRtuk1D7kOkAZzhhraKcbLNOooa17nOBbZHqb3LbhxhGgCsnBzZNbM5RXrQuXOUuFGgg6erKaPmvAoRWTipCC77Mv8yStUBFI1rsKfX910pjaH+xbk/XJFa10FbFdM/veGILCo8y0n50SgwraDgmc/feBcDPF7aQh42OGMcDPiznL282cKLtxYTZBTtUy6ESPQhYZics4g6dDLAA09ufDt7G8N+Wzs1BgDMZLcaswdJGy3f2l6+sFVVEvWxJL9nVAatWGtNP0cY5qD5AcgKEOM4C7CWCFi8Fi4DFotjcIsBpgxla0nt+06QyYD+J7Et3tZ5sJGV0dJFIXNMPTm1U6Rg+o+GzljqzTSkfkWwloC/odLemGEgvctx++VfoPgD28XWLdnx4fr3dgy9/9pZe9ul6Ypc9/AQ==);lineShape=1;" vertex="1" parent="1">
                    <mxGeometry x="186.36812430997463" y="143.88346030840916" width="1.9798522340737148" height="2.014614970198104" as="geometry"/>
                </mxCell>
                <mxCell id="18" value="" style="shape=stencil(lVjLbhsxDPwaXwlRL0rntP2PAHEao2kSJOnr7zsLQ+6K6522N9f1RCI5MyR1SDdvD7cvx0MMb++vz1+OP0537w+H9OEQ4+np4fh6esenQ/p4SDf3z6/Hz6/P357uzv9+uV1+uXz6+vx9+Qs/z7iYRXVBxfDr/E1pks/ffDoDHk9PK0BKEvIEqFF62gdkk15ngIn2fUCpktoMaNIIoHaxOAOK9LwPaEFKmYOuI6rrgCJxDjpnaUYAOkIcgIQskRgsSp1PiE0SqUNBWuegUcoYSR36qOsFECWRGLL6oKNKDfuAaFKbv5ISgHYpMyDhBHIlLVKCrwO7kpqEmXygt1USQ/JBW5D4Fz3MlTaTQk7AjdN8JStSiYBKFptPqFUyAUCQweagkVYSQ03SZi4lJJrooXQJjkuVk69tqGGSSeFAhDhfqRR6QgqiDgAjI1xa9OV8SSUUAqiDzCvnq0TT4FKds4REMy5BXy4GnMC4pE26OyGMUu7pIW7sXknQWr2RgY6NUAMSdXZfLj6yd0Jx3mpihN6Ioc1cWkyAZamPG18A3PlgjNHZjA6VXwdk34FyGGnYs0rN/gTWH2L3hUPQgcQAPZiLoUpvVHHZFS5Qm1kATnGZdlFcqThfggkwxW1sBvSOLEt1DAorAUVWhzwusJKoMmroGHbW4w/RNMhXnWuoFAYA+51E+7CFPQHlmUuwSsYlvUxHF0CkdcAJcaYG/JyNP/8NSJi/5ixp5A0le9colKwFXjwXOtI5YLH2mauQOAkAU4LNEauKEblZHUxejWOFRGDdNwc06U5SZG1k5BJCl056LuaQtBntjQ2twQMs054LcfU56JZpc9juAh0CJFRF73A9t5skEkMyb0oawiDjnne7mbJjlGBDKIafuXI9SmMdTj25lwWEsLV4U0IpjXnMZiXLtCEGr070dCXkDn5iXbJM7pM3mwaGDPJ7LHyzmDWPbrfnR30G2Ogse23Bj6t06NkuAWGU/Hq8UTS53zPKId1uYQ1j4Lius+ClH+m0jQ3azcKZigbWUtTlkz0aNLSoOZ+LvZOE9uTtdMkQ0T0k6ES5LARMY2FDalSFkQJHmBtfEl0+e/asg/+xntD6UNUlrXEUfu+ZoTo/5VEbpps5TXAWdkLd9M3W+GqYB9NWANYTcvHcbpWegFnBDUhoIkoA2PScxSNLjS8M1a3olfovHD5uDJguPfCfuSWgMsZHMP/MoLSZY8jLbhTulHwAxDlLFabN5s7iTabiT7AY0KbcCYm/D2GcdwJS+nSIOri0Ynau7Ep9s8M0qocYNuut8U3vssGvAbz3XHmRJXX4hydcfPjzAHx/enw8vx+v/98/GOOr82Nz+vgb);lineShape=1;" vertex="1" parent="1">
                    <mxGeometry x="120.7326923450994" y="78.54036090322603" width="2.7649928321767567" height="1.9319905106178648" as="geometry"/>
                </mxCell>
                <mxCell id="19" value="" style="shape=stencil(lVjZctswDPwav2JI8H5O2//ITJzG0zTOOOn1913VQ1mEpG375ihcEsdiAfIQ7t6e7l+PB3Vv75fzl+OP08P70yF8OKieXp6Ol9M7fh3Cx0O4ezxfjp8v528vD9e/X++nldOvr+fv0w4/r7jUpLQJpe7X9Yv3kvXPl09XwPPpZQGIVWIaAUlCIwAn6gaAOnF5H6BNfB0BjQI8fIgDIHrxjgCKJB0AKUiLxKQgaTQpR6nkhFAkjICi/csmAAbEaAGVhDVniWU0KUlL+4CCNEXrdCImldD3W4S1cJP8yKUQpHridJYQRoCKJ3mIsHjkUsjiWB7UJg5bVOK0JomjSTCyEB80ihudBjWU0bvYAipz3Pa45MbEVWSGmBSbDWvNtB5gccsjQHvRbgIqNGLMQ8YX4jQAJnEQnkh8gAFhpHcqooQaNYr3IwCpZD5kSaYekMpCALB4pRpM+ZquuDRX+TYgdeYsTFISpVa6Vi+czgzQRJMNa2JS6VwvsEXmMvMaamyEyVNhanVFJiQiEEDuPi6kr5Ce1VAvpkazVJYIb0sug31ENmrtHWpxQiNRqlDjZAFMyVDz6m2UaAV5qeYEpXQFwNA1O/G8qNsoriATa6N11eRA18ZOAJuNCsSunnt5WJdc4pleAwIDRJs4ACqRDbC1Oeu0I1xCPVQDAFtZPTSpRjYqr7hNAEuc2tmhYaojFVdAjTGs0DZHTALV7AlIJaFGLJZLC6na7qNQ17A6ghQEWnsaU93mZr8tltmeUAvt1N51JswA1wV6O65WjKdAkwPQ901Jax99d/Zvpt6UVoNXq0pRaTV4hHz0OCDKbL7CjGiuD5WPS8mOfJje2eQQs/VhulCwWb1arsIr1h2K60q9vAKxNLcexBkQu5rvDTNlHASC7zq1p3vBABod+dBDg8k0+jY/IRkuVUms/yAPZnAo9CpaqjUJdxzW1qf9xjkAwhYJW9Ftyki+aZImTsdVOwEgEu0GmZMZvXk7wd3VlHSZt9gOax9qF5JB7yerwUSlEJfX82GgBe3seBgjle1oLwIocDod2t6mhUoeRNtkACayzhNc5/2t8/QXiz1SVFM6vfj23gJ0rE1HI3qbJ27r2YCBKc0Fu55k4DZN3NYroSh6ebH7szs3CGauPX95Zwg9P3PG6PQyXcjNQwaVa6xPo0yk7tDeevMUU2iHyvMTxFzz9CEG8TGUbnQexH3L2AOCMk3570fAfwDgx+3N8fH0/Hx9slz+375R4tP1fTN8/A0=);lineShape=1;" vertex="1" parent="1">
                    <mxGeometry x="119.83211514848819" y="115.69158675587113" width="2.2310828625468466" height="2.9739303119292364" as="geometry"/>
                </mxCell>
                <mxCell id="20" value="" style="shape=stencil(lVjLbtwwDPyavRKSKFHyOW3/I0A2zaJpNkjS19933IW2Fm1PkNvWESu+ZjjUQW9eH26fj4cUXt9ezt+Ov053bw8H/XRI6fT0cHw5veHXQT8f9Ob+/HL8+nL+8XR3+ffz7Xxy/vX9/HP+H35f7PIklmarFP5cvjQJ078PXy7nH09Py/MqTYfzKUrOxCBIHS/QJEWJQZSWB4NcpDCXqlQbDEoWIwZFpbgbTEIjBk3iaKC4IRCDLDmMWSqSK4khSVhlKZd9A42iLoYsicSQaq/rNUtJYiIGJtOYVsuiRlyCA2PQNUkiN6D38thLhlKyOqBZR4NiUkhaLUgwn6UayQ1FrPpeqiRoJDGPabUkjTVf9GmtsTfLbre20WDqTm4HjRiKv6GQOqBMYSwcGj6RoKtKHA1y66DdNGhFJle41L9sGyCJIx6sSSF4aNHzEoJOJK1IYomjgfYv2wbmg65FEgm6rittFA/o/qLeQEnQpr1MC5coL6FzXNC5I2TbACSw6iXa3qUD8lq4SfQdxI0umfEYqsc0eCmQOiDoOgLIUBlyA9KaXQyBQtTWEwh3suYD9U7eoBFMz40QvEusDjNHuCyl/mUPQJNDXOm0sAvRFXsbg2jqjXDtpdCH2LYBsj66hLxVFnQVdQACezOIquhYBwBoIjegmYOLwXhrZD+y5huIS6hrXcXA0go81NXYZfMBiGvV14FRJQzWc7p82ICQQMs961f5UykJxBD8zIKaaKS/p9o14QIQgaRpyn3gLJiMdd8UJDo2rtQAUadRwzWjbIxeC2PlJqUYBYSdJJsaZ2Ow+9jfi0xvq76pC6rrFUa5D8I2jXTceOUSMDd2E7iKbRBQrs0NrdDH2J42drwBOmZLDdS33yAq5W9kyS0E2rri35WJzgDEwFSf+T0Lect8QjiigYBXor5nEefENHQgQ3X1Sw20bGQzSPtMW4pprsk8lSVKNHOWxhjmIcMAoV2BLTCaSZZ0NSFaoy5hM/TtbX2ybnOf+m0UeKCKya/4lS9yEM6O+CB9SeutqLgYBQMIYKwywMP8WWnQGTsEnUhQHQ0SWI85pF2XXw0C376zx3/MvSh7bxSO6mOgLkEGuOkDA7ptJC9l4JIShoEcc8sDaJAxDNCZ3SvIlWj39JsT3vM7CxtXzS9AcxqYlJl80HOrMuIufSIvDBj+0aw2xlBy38e3DVCm6oNmhAGDNdPT8YZ1x7VGo9Ie3e/kWKG8jcGhIxyU8ouu6px6DvYUgBtVsa9De0VzcyT0gLbPQ2yaO89mbYZwa/48iTcnPzkD5a9cvGyL9LkxrzZcrIvsxbT5FyKl+YFSdtyS++63d951qFH5/+E35XfP48f/B+z70+Pj5f17+Xf/4I1Pl8dy/fwX);lineShape=1;" vertex="1" parent="1">
                    <mxGeometry x="165.29824031400165" y="43.875930832841874" width="1.663011358547358" height="2.7244963192352536" as="geometry"/>
                </mxCell>
                <mxCell id="21" value="" style="shape=stencil(lVnbcls3DPwavWJ4J/icpv+RmTi1pq6dcdzb33dZDelDUGfdvimKIeK2iwV5iZ9+PH75/nAJ7sfb68uvD39ev749XuJPlxCuz48Pr9c3fLrEz5f46dvL68Mvry+/P3+9/fv7l/6X/dNvL3/0X/jrZpeKuNatgvv79o1GKeXfb36+GTxdnw8GsUnwi0HN0tq5QXLj94ZBKZIrMSiSVpdyE09OyEm0LgZJJXliUKXG1QBOZmKgUtYTQhXHYthOCCqaSFqrpDVLyUslJ8QoaXUpOwmscF5Csml1SgyCDbpGmlYkUXXtJcRATshe2hq0Jonu3KA465I62nylSlhdqoG6VJposFnKzCWVaNI6E33fIEtcXUofuISgV4OInwgkrVm8W5uPAygh66ZbUelIu9WQANo7sl5qUlZMR5AAQRwQ7FcDQCqxOvhBKrMOWQqJoSZJpnAc02jmZk7w1CUYGOaLIAFiUAGX1SCUkej7QafNwFMAISe6ptVXiQzTRfxaaZ+kMSIrttIwyKT50Gp5RZxvtL19scyH9q6E+brHZj5g6pGgcYKuaUXeEgk6OIs4VCaS9gZcspmicfDIGbfGNa3VSSbtDVIJa9CgNscQl6xLoLbADIrtpW7AegksVKxBIzEAX05t0CytOUjKlu4pHqL4lfkq71YYuJU1apHGZhzqsLZGbTRLeaN78AgtnFqa0UABhMLFbA2UqZloAQQDppegXdTZGAoXiSatGOyMjDuTGjxUWgcYGIEF3VoYkeGEDaKBudQ2l7x4nqVsANQGtZ3Voa5ZAoAYL3X2dtbAMwMdc/9gUHi3ZmdjUGYQRl0PWSoMomEovEMd6AnR0gwgSveHINkYKNV8XeEZALn/b5CIS35rbyhjZTMubESmI6r70uFO3SIb03Y6YCdiVIyJuE71vtaRFAHuqz9YcFhK4+D1KQICld1t9P1UGVDdrAJlyJwZMOUXJNQEPOXimYT2K83PDJwNT4NMNypypofNboWMkX4AqMzGqpSLdO6CM15sJcSgebsowaNGPGrVLkox0pR6tzURRA0rWtOhAw9Cj91NtGC1Z0HeCAw6bA1lN7r4YCpFQ0aBCu4yQzwaMFWV7AmdstnYSWOROqhbJTFgBwgrFjK/kAE6zZreVRCRMCGJ265LMjPwozlnMzmpBG9ozrAyMADHpCRi0JXjwTCBLdFtTNYD4thsbsPh979XNtbUUjwcYutnmQw9DZQiFJxRDKQnq91Hw87ylbI8WMawcFJKe5qtQXEUbx2gZnAGTnzoG1M2vmMA0c4wa+MXPtVu9S1zEaY2hsZXaLSS4eIDd54JdLNZgTuZuAW8jIJpkW7pYc7jmaZC9bZHmlaWwQrgmEbKFkDoeHpxUOwOjfHARJJvIyezXfl46Dy2xhDDqOVZWtN2VeeZTtp6wycqPdOW1kbvAnO1zFppyMh5MA45ymPAo1VWSq9vsMIbYoU4qwQOfec3tMQviOBS2dQtvahTq5aQNtbcJdgslUJpqV/6Gt0wryrOts+6bQxMBkS/nZDpVI/bZSNEKdvcusbdnooSKVwu2zVaoo8gyLp5W/rgFgDUajZokExgLulg3kNaG9sN1bZ3XybZXMfINHclgU7dnqXtjS8zg2zfAzAlK1+5jcrFHGZjer8V64ObsYyzlX6f9Gc3GeYOt7vEbmOqlcU9aP5OaW4nP3g6/Q9vrfjw/lL77fr0dHvoPf6/fdnFV7dX4fj5Hw==);lineShape=1;" vertex="1" parent="1">
                    <mxGeometry x="192.55465109227464" y="43.47627679273188" width="2.6018305255965584" height="2.59646297205065" as="geometry"/>
                </mxCell>
                <mxCell id="22" value="" style="shape=stencil(lVnZchQxDPyafVXZlnw9c/wHVSRki5BQIVx/j8yWJyN5pwNvm0nbI8stqaU58Ztvdx++3pxS+Pb89Pj55uf54/Pdid+eUjo/3N08nZ/114nfnfjN7ePTzaenx+8PHy9/f/0wkOPXl8cfY4dfl3W9U+GxKoXflyeZYv/74P0Ff39+2OMbZTF4IYkAX6gFg2eSCvBCpRt8oob2Z4rs8JIBPlIoDh/CMb41qtngI7Snlem+F3xlgGfKyeF7A/hAtTr7M7C/Vmrd+T+B+61C3d6XEAP7a/T3lamkY3xpJM3gKwXgz5IpWf80KuC8ZXPf5s9AqRwvyHrB9sBRtwAMypnEMigyFfSGROyuOBODO5ZOyd5xrBTBoaWQ2KCM6iX0BvasTgGGpURi6yXlHYNDc6Pu4kwogzfwkigGM8A9sMxA3BZ0qoDanKjbVKFPKvASR4rWrWpkAORWA8S6lbf0en1BnclhizaeV3l9QfZulTrZdX2BULQLcqSETNJ7tW5Vwge0IHjyaUihQys3s/VSSdPR1xcUqtYkzQqIrVGpYZPASDuArRrByZqkeS2iM0QfQJVhxGkWYpsna5k3c71QUbJerepVVHiWPKknAAbVWQY2PMPCpinGhqdWOgH7Z8r2ClqnCMJZZihOvFbqBkghk5QbXqaF14PZJzBVJgVwKHldNJQPohB1m7NVWTVgT1yKQghQiYTFQepQcAANS/uCXmfcHeCjZXTPkBCbtbsLToAQYabODd9mlB7hq8dnaI9LdG0LiQN8ah4fAOHCEgAVKrVAmZf9of+LLPZDe+qyf8b45bwd+rO6BNFnZTjCV4+vmM8uIMMr/i8LnuH+Tmj2AEur7pYXPAj4MMvo3h4cX8njI+RnkMWfQN5ci0fUmYWpu3d4pMTDZO+OP6jMB9+YKR7zJy38D/C87OL9tXiUvuwP7SnR43G+dXxWvED/+HhpUI0Gr4/ba/n///DR35cWyATxrvHT+oL6puTvV/ER+D/5RlTrEeIzLwWbYf6U2YPt4hEpuOwb+8E3kB+KFygtQ3uK705agvm8eo1bOxRMze9fVQIigbIkrLrNZo40sYuwmqAEVdXtUlbpcHigut7dcSmQc3FpjAtTR2dovvUuAcvERTblCg895k2uv2I40VBiN/sG0YtGDVn2SkK0awRuVSqJNUkSLMXanPjGGGst1mRk3ardOyK3dubFslubcTTGGfu5uWGDfa628i6/q9/Q5FCP6AcUmqJQgokz3+6GLBVkMFlSWGywh5BC7OY+BdJbujcp5tkmHM2unMrRoEWqLmdi9wY80MzN38MY2IGIK9FPNBscLJXsC1uBuneMCuw9ZzhhGRNQmycZRptm0WYvLUEdNSa47pJna304Ibb4AHXjmEBHh08gDtYJN+5bh6ypHo++AMQ56/w3e8YXAL8/quNdvH8inG+NLxh+oo8qQm/z37sJPbJHZb0Vsgx1ct+y/w6P91++AKA+WvHdJXfsz+4n7jxfeKArlk5FoBC8uoBB4l0twqPngXcVFirxgff2ICXYu4/gDDubwYjq8EhS9O5bjwyr8X9/83sVrz9ePjDenu/vL98n9//3HyT10eVjJr/7Aw==);lineShape=1;" vertex="1" parent="1">
                    <mxGeometry x="234.67937998056368" y="40.339815171685615" width="38.98941944467095" height="12.461087034595096" as="geometry"/>
                </mxCell>
                <mxCell id="23" value="" style="shape=stencil(lVhJcttADHyNrqjZgTk7zj9cZTlWxbFcsrL9PmCUYQRQbFk3LmgCDWCwcJPv3p8f3rabFN6Ph/3X7c/d4/F5kz9tUtq9Pm8Pu6NebfL9Jt897Q/bL4f999fH0/3bwyQ5XX3b/5i+8OuEi0y1TKgUfv97QpH/Pvh8kn/ZvVr5wkaeabpblW/E2X4/kTQAqCRWgaoMCFCoBwNQCh2ZlKk2C2CKCJAoWJNyooIAgVK0AKaW1wHi5UuiFtflG5Vq5TUsZV2+kFgXVaUk6/KZxNpTG4xy9kFuAXq0UnLymQqIsVC0SdoaNRyxagm3Ti3AtO7WItZP9HWAurRZk7hSBhQ0ZapYgMAYlOizTgLkUDqJ5SAZnpwqI4tnQKUCTFKvZ5sXwsQgDpxHmGaAGgk0TBQt6a6ZCkirAdlq6AWS7p2STY0uUIMCXKQVkLCGnjygAtIxhGHBGaKDetFnL84ApQVU6GtX86YnIL/1degeIMgk5Rg9oINO0pnEajjzwxoiLVh3UCa7Np/qAYwBeeGmglg3X5kUEBEHBdhDqo5jULonkxbZVLCG1j0gItK8OBE8Wupq5KIHCALI6E7nAGSSZl9amIS81BfZp6TxIZW6cCsafC4e0isk+jI30Inoi8j10cdWa9kiXRmxlpH+5ycI+VVGNt9wSN2AOKmoMF/7wiZGpelWgHY1X/zqqD2X25YMi2dAHulyGRD9+NDjGIkud1IdH6xJguuxDmDspgGG80bRyNlkkgLjkDtlm66S4DSQtVdbLzEux0m/ZwPHDIul7gIuv7ngE0TFctbABDCflDFQzWMiD06XDfIDk86tqMctSsY0FwPCYbCb5+4KYxZ9jGsc89PlCJDYEOvecJN/dC+JoFw0P+NmvB0KZWu/TskBHX1vv2pEJThG323VZQ2NYqrf5rQusAIYTNvsYr9llNPzpvPBBTqPbv/BBX3x/QBrncq78Tbg1Sr76TaMIK6t56k7+YT8U/wuGcYetFojvD2oP6k83yTf/HR0xZ7mq+IVvuxHnSv+1LLv7YHx4lHEP5gPt/8QuiKvF///Pj3tXl5OP6/O3/u/Vfro9Kcr3/8B);lineShape=1;" vertex="1" parent="1">
                    <mxGeometry x="234.65788922701086" y="45.16173282465044" width="5.815251781225035" height="10.24285713966197" as="geometry"/>
                </mxCell>
                <mxCell id="24" value="ye saare 8 possible locations where &lt;br&gt;it can jump to are the level 1" style="text;html=1;align=center;verticalAlign=middle;resizable=0;points=[];autosize=1;strokeColor=none;fillColor=none;" vertex="1" parent="1">
                    <mxGeometry x="250" y="15.399999999999999" width="210" height="40" as="geometry"/>
                </mxCell>
                <mxCell id="25" value="&lt;font style=&quot;font-size: 6px;&quot;&gt;lvl 0&lt;/font&gt;" style="text;html=1;align=center;verticalAlign=middle;resizable=0;points=[];autosize=1;strokeColor=none;fillColor=none;" vertex="1" parent="1">
                    <mxGeometry x="165.25" y="68.76" width="30" height="30" as="geometry"/>
                </mxCell>
                <mxCell id="26" value="" style="shape=stencil(lVpJchw3EHzNXBHYl7Ms/0MRokyGaVJB0dvvnfAEwEZiOinehpzJBlBLVlahL+HTj/sv3+8u3v54fXn+/e7vh6+v95fwy8X7h6f7u5eHV3y6hM+X8Onb88vdby/Pfz59vf79/Uv/Zf/0x/Nf/Qn/XHGxmBY6ytt/r/9xwZT6/39+vQIeH54OgFCNrysgmuAFwJnmV0A2xZ0DfDB5BXhvvADgebRCsMYqQDB2BURrYhMAZ0pbAdm4KAHBLYCERxQJsOsKqZiiV0h2AeSgzxBNzQugBOOz8AMctwKqMy4JT083TUA2WQGqyXEFVJNELMVk0mql2qRZkzdlDe9mh2duA5qxlVfIIh8yNpBWQBp2uwkoODT5oZkYzgF1d5w1XhwaVm9lDY1omhWAasJqpW4GYSUA2hp8CbGkV8iUQMVYdYZi/GrW6PSWYKU1+EI0WZnVmbhayVcZraWYsB4aTOVFxhXPZnVVbilnjiWXhhluA8BzBPCD2m6H93TTzIfB/7cTLpta6fdOBHdIxhXekBOBgefFlQLAUyp9PKpNYaMmEUl+sxHKSVVUXIyj+lMkBfQdryuEIEsi6k9aAyPADOLQMCJlNJgwqOqQ2awpjeg9M2taD41y4kRkhM2siF6vhEPeClYdxHY79mY9O/BeVcGNkkhE6WWV7iwXGOAFICdTCQAWEaxUMkcrrJQV74URm9Nx1TjFe5krXNKHBrMSdyOWogLUQbwzWqsMb6zg1hWgAVWK7hXO61gCFaeNBKoCeFZ8yJCkdUB2DLAiWmF10jLgkai1DFnJNZ1AdcTmtJKTErHrMSKyKBOof71mHB4RNbeyLsaWFM3Mr2e0WtNUM5BZB8Az7xx6Fz9BmBXSnxyXvbQSHEc1NCGnxaFjHTLhkEDqDHHKhAmApFNnaKyLUYgVL4Eq7WolqCUntAzCm1gDNU6VrBSHXw8AFd4wIjEfAIoqQYx86DiS9iynObzTCJYzeUWdaCgjWM4AhQ7dJAkA4FbmQwK9V7LWFaLXhwYLEd0HqWYgFOIq+WI0XigBaEoS0h3woTrdt6TyoW3yx5skdDESqO7dg9Ias6IdHKcEFgCRNF/RW2rcHPfgE6wBYmSRGOUKSFG/mjVos6bp12OKqozLXIE6CahYqsPqhzMogYXwTpuV1ApIIBK68IPydE9Rclwdou4DABXeaQzQDgXFKm51zK25jBnBWVdGNNOFrgJYzukSZZ2GX4tnQBNnQItk1zP06ZLSGo61d24yWveWBoVdOQ5NU6Y6XWVBccg4apq8nJA1LtN9PqXmjnbjgCrbbxyBurIwB1pnRiKrdseI/PFbdMMxSi71523CuKiRQNymIEGOEcHtREuwW1DEZ4fWmSM4TWONWSnLdEOfSs0Dujo198msiqtspWvceg03lMrtuLOsfNBrWGGhFjmyvRZjrbAuCVbycKssihHaUTBMmzY5jNTVOKBlLg2daIWb25Txxwm5HlISh4GSZN8K4l7N2mlVkF5JPDQpVbIkCoGjULJDPJ1VXFLRVU8ooEs4WJ0kPdQST7WkyXkaKMuSlSCVFMVEbk5gVkUAPfppLGPHHPI2wG3DqzQecdsPQwweSklVXShrt6QlgB+EdZDQST6fdVUZK952GqdC0AYqg9IPM1PVKb1NeX9yvgKXFZrgOEmSPrJCz+NK4baF3Kj188iyi4HeJ8Vj9XQSHUOm31sl5/NG8nq0n5iMghyUQAHS/YfWkGXrqZwWO/1aiy5+ixxKoEoRAD5Ug8Y2JeZxbijOjCpFN5ShyTRu22Vdl9JKdFrLbkhRXlxhCUplNBBKObdJhoe5uKoJbZusgB6rKrWOL2X6Ra5ydR4XkhOgFVK1zC9YU/V52DGNAFqU6ZY3vuh2E2aF1fmmS3f06MJoZnBw/m0KCGwmLKEERr8dC3yIJvbkC/N8S1KRuMblv+kbDRe2K/gimb7ysKd6zZNsI6hjlQ6OR24o5VHwpB1S/NAVqv5/z+cixfymdvrAWu6nfWh6tnd4Rd5Cx20a4UZ/dVbJqb+Lsrdwm1rr1xJafHF/F6Uux5FJcfa3ZQThIeYC93dKP8KCge4M9Dil8Ls3+gBx24++VunTeYq5ccN8OvnLH9g/mItmkVkP//24UXyTCiqE8Hva/9Q+Z78nqdNkCuP31L/3SYwykNteWnPvAagYIMwVU8MFdO3U3xkTaQMfu8gA1ah9+MW7nwDgw9t7ft8eHh+vrwkev+f3AvGv6zuF4fN/);lineShape=1;fontSize=6;" vertex="1" parent="1">
                    <mxGeometry x="219.693111846906" y="78.21532180762287" width="2.6665981706591397" height="3.0114510429230656" as="geometry"/>
                </mxCell>
                <mxCell id="27" value="" style="shape=stencil(lVZdb9swDPw1fj2IpD6fu/Z/BGi6GMuSIk239t9PhiEnVGwCe5NlnkQd7ygN8vRx2L3vB3Yf18v51/7v+Ho9DPJjYB5Ph/1lvNbRIM+DPL2dL/ufl/Pn6XX+ft9NkdPo9/nPtMLXjAsOKU8odt/zTCHIPPMyA47j6Q7gGcVrQIJz2wARJNGAgizbAPZwpQeEtA2gANftEMF+G5AQWMc7MBkZQfT6mVuKq/GuEdLiEyMZ+TzUIArIiPcImqDgwUY+RD1BPoHYABT4DsCmKjij6CN7hxANVWT4oAGEbABqxp0qfASFbUAQFNIsVekaO4QM0jtEakSvAypLGpDIrFtIiEkLySEa3pky7pRXibbcGZA0rSXAG5WWiPxgNjYA1TysxUrOmQ2AEkpnt4WHVUBtD1pLheGNQ9cGEzVJHsVY3/XiTqHRvBFPnT0jxOp4cJ3wktkuMqLuqL6WwMi/xsv/xBeQzqeajw3nEDcFNEAtejScUyuctK4pm/2FQ+9+Wkhep9Qj6zN4iNGxqw9Ea8ghW80ituVu8ZamY2oXxnKAluD6jZMgWqO1eVklXn4v6zOywWiRRvhSM4I3TlA9mLWKxL7472x+dymw2qIObg+Nt/F4nN8p9//7h0mdmh818vwP);lineShape=1;fontSize=6;" vertex="1" parent="1">
                    <mxGeometry x="185.2692812732157" y="92.08224259168932" width="0.336429606585682" height="0.33674044584884655" as="geometry"/>
                </mxCell>
                <mxCell id="28" value="" style="shape=stencil(lZbdUttADIWfxrdnpNX+XlN4D2YIjYc0YUKg5e3R1mOIlkSd3vnv88pHR8c7yc3L9v55MwV6OR0PT5vf88NpO8mPKYR5v90c55MeTXI7yc3j4bj5eTy87h+W8+f7/mQ/+nV462/4s3CNUEKnAr0vV2JCan+v3C3Abt6fAxmlGCAJWnWAhsoGyIKaXSCJAUoEeyUltGyAqis4QG2IFmiMFh1AVbIltYLE14FCyFYlJgLRdSITJNolGtiRKRGq7ZzqQE4jooBtI2oFO4BUkAVK84EMsrrmBhIHKGMjUkV1VIphXCGqW5zO6W1pFggITklaQK4G0CKzs0KuaMkCGSE53lARrZlU6OB8dG+TXUFbGfyBoGFG6V8zykPjCLFcB87c/OkNWoPh8hI6MBbQofJa3UdysGtbX3FZJh36YUg1GJySeqzYkr6i53KrBeXbjFYnBjQa6wBofHozmhCHoVZZHTN1QP4HkDima09Dx0whrm7+BBKyE0yc1rQ+i43ofHRBtW4tDHHaEMYwzrym7cXn1ar2AxKvKXLteWuLSODg1ZNsYgRfUc0TWz831xQcR4GYkZweBxmBBHEmRz0x/Bm0AY6garpBofHfpgdfO47HebdbNizn98cdil5adjdy+wE=);lineShape=1;fontSize=6;" vertex="1" parent="1">
                    <mxGeometry x="187.18190140434717" y="90.65319149744931" width="0.31432784252973534" height="0.31529209520059" as="geometry"/>
                </mxCell>
                <mxCell id="29" value="" style="shape=stencil(lZbdUttADIWfxrdnpNX+XlN4D2YIjYc0YUKg5e3R1mOIlkSd3vnv88pHR8c7yc3L9v55MwV6OR0PT5vf88NpO8mPKYR5v90c55MeTXI7yc3j4bj5eTy87h+W8+f7/mQ/+nV462/4s3CNUEKnAr0vV2JCan+v3C3Abt6fAxmlGCAJWnWAhsoGyIKaXSCJAUoEeyUltGyAqis4QG2IFmiMFh1AVbIltYLE14FCyFYlJgLRdSITJNolGtiRKRGq7ZzqQE4jooBtI2oFO4BUkAVK84EMsrrmBhIHKGMjUkV1VIphXCGqW5zO6W1pFggITklaQK4G0CKzs0KuaMkCGSE53lARrZlU6OB8dG+TXUFbGfyBoGFG6V8zykPjCLFcB87c/OkNWoPh8hI6MBbQofJa3UdysGtbX3FZJh36YUg1GJySeqzYkr6i53KrBeXbjFYnBjQa6wBofHozmhCHoVZZHTN1QP4HkDima09Dx0whrm7+BBKyE0yc1rQ+i43ofHRBtW4tDHHaEMYwzrym7cXn1ar2AxKvKXLteWuLSODg1ZNsYgRfUc0TWz831xQcR4GYkZweBxmBBHEmRz0x/Bm0AY6garpBofHfpgdfO47HebdbNizn98cdil5adjdy+wE=);lineShape=1;fontSize=6;" vertex="1" parent="1">
                    <mxGeometry x="189.48590225883936" y="89.78919308436338" width="0.31432784252973534" height="0.31529209520059" as="geometry"/>
                </mxCell>
                <mxCell id="30" value="" style="shape=stencil(lZbZcsIwDEW/Jq93bMubnrv8BzOlJVMKHUq3v6/STChyJqK8GeNj2dLVjTu6edusXtddcG/Hw/55/dk/HDcd3XYh9LvN+tAfZdTRXUc3j/vD+umwf989jL9fV8PKYfSy/xh2+Bo5ZjAPVHDf40ypKPF35n4Etv3uHKgIUQE1IVkAwScFsEcOy4DsF4oGMigvAyUheg0wggHkiKwB7xycWyZShGtCVCTjEjGiOA1EcFkGqCDrW1dG8QZAyFkDBLIBpyOUjGhUjhK4KiAzqpGlGNoIkmlvpdWhBAUk0SMZlfNtHVJBMYDiUcs1QA3w+ZojsZty8s9Li5orX5NW5jbChcIN8tdZGqRhqJUTvD7SID6rR+usqW15i6vUBrAbKM985mKPFsQmhOQhGXItSPrWF4yGTh35TysjMRqamaUhJgqtXAc7vhowtBHczAUCUjW0MdX1TN7ZShK8rltKplhPRZ3Wx0vrG8sQm7LMPk0amNbLTOTl9V5apRFeRjaAECchn1QBspxeekeLgsDWBeRAWqaSAqNg4ibN59DumzrLkIja2P+sD08lbr5UMvh7cDz22+34Xjn/v32gyNT4uKG7Hw==);lineShape=1;fontSize=6;" vertex="1" parent="1">
                    <mxGeometry x="192.46086570291806" y="88.58875817073448" width="0.2877138590366144" height="0.45351903512985814" as="geometry"/>
                </mxCell>
                <mxCell id="31" value="" style="shape=stencil(lVbbbtswDP0avxKiRInkc9f9R4Gmi7EsKdJsa/9+NAwloZIQ2Jstn2PxHF6kqTx9bF/eN1NOH6fj4efm7/x62k7l25TzvN9ujvPJnqbyPJWnt8Nx8+N4+L1/Xd/fXxbk8vTr8Gf5w+fK4wSaF1ZOX+tKhroufF/xu3l/jWdAcvgE2B7jpUBrA77UAK/A4vAFEj/GK4F4vEAqAV6A0OGRgPExAVOClLxDGSiwSBVIvYRYszbQ4gncXbtPyNB8SFT6yn1Xb3YghhrYJKl/PhMUUqCBqafpTLBEBL42gewLjwhqoKGVUXQREA0ICdqQB+zFdZdQrfY8wYpPIw04lgY2SFFIBOh30LB7mvZivnSDBGnj2j2/dFsLukewW37Bp6iOuG9/Fgwa4LVA8fgW6lUGGv6foVDYazxk4JzERwQdupmBox1kzHGpcTcTZJ8DQpBgXojcNGcDirJmBPovgjW7b04rdQpE29Rmr4ERWkCwY6H6MS85dKndDEm1kyggWMTqd1jGZkCwgVW9S1ej/C5jmSd+JC3VEvS/nTVDuVpMHOyAljkeVddABJop3iZrWQlCotElxlAzjlO4CnAQ0M1hSBXYdbQ9XC4bb/Nut95Vrr+PlxNbWi825fkf);lineShape=1;fontSize=6;" vertex="1" parent="1">
                    <mxGeometry x="194.89233176797063" y="87.73965838991967" width="0.4670274112999664" height="0.3829221726224148" as="geometry"/>
                </mxCell>
                <mxCell id="32" value="" style="shape=stencil(lVbLctswDPwaXXdAgg/gnKb/kZk4taaunXGctvn7UNWoCRgbtm4UhSUeXCwx8N3L9uF5M0R6OR0PPzd/xsfTduBvQ4zjfrs5jqe2Gvh+4Lunw3Hz43h43T/O388Pk+W0+nX4PZ3wd8aposQJFelt3gkJSf/tfJ8Bu3H/CRCIQGQQksHxMkIrWAxA2xHhMkAUYj1oQnQ8VAEVC6huEoXB1QLUBaSKqLZMH3U4i+CwHPjfhUDFKWxFYQsoyF7WCF3SEepEFBBsziJITkDUpyyMyk6NeiZVRUhOPO04e801IzoJxFYPG1GNYC+iAO1CIojDvCwItAZQGYnXhCQFHL4k7XjQ3HfPVNbsABTVerhyb42XYnO4QozGM0lrmCetJh1V21U6IRVB7hTAb54cUVb2Z0GxZZokwHHR+ke7/vRFJhBCpwDJver4JSJfJ88K8Vp7R2CoZ961pwHSPSUE9VQYZAWpLoJw/vhGO8ui5PbmFI+tZ3QvmNtva08Lz8+rSwLFzt5jXM4LhW+zL+1BoBXxtFew45ufr9RFnm+rpzLU2tdFaS7pSuj44/Nh9SxyA6AtPkafp3G3myenz//7UaltzWMW378D);lineShape=1;fontSize=6;" vertex="1" parent="1">
                    <mxGeometry x="197.7453405991048" y="86.67493352004962" width="0.18133494558924212" height="0.6166291786628904" as="geometry"/>
                </mxCell>
                <mxCell id="33" value="" style="shape=stencil(lZbdUttADIWfxrdnpNX+XlN4D2YIjYc0YUKg5e3R1mOIlkSd3vnv88pHR8c7yc3L9v55MwV6OR0PT5vf88NpO8mPKYR5v90c55MeTXI7yc3j4bj5eTy87h+W8+f7/mQ/+nV462/4s3CNUEKnAr0vV2JCan+v3C3Abt6fAxmlGCAJWnWAhsoGyIKaXSCJAUoEeyUltGyAqis4QG2IFmiMFh1AVbIltYLE14FCyFYlJgLRdSITJNolGtiRKRGq7ZzqQE4jooBtI2oFO4BUkAVK84EMsrrmBhIHKGMjUkV1VIphXCGqW5zO6W1pFggITklaQK4G0CKzs0KuaMkCGSE53lARrZlU6OB8dG+TXUFbGfyBoGFG6V8zykPjCLFcB87c/OkNWoPh8hI6MBbQofJa3UdysGtbX3FZJh36YUg1GJySeqzYkr6i53KrBeXbjFYnBjQa6wBofHozmhCHoVZZHTN1QP4HkDima09Dx0whrm7+BBKyE0yc1rQ+i43ofHRBtW4tDHHaEMYwzrym7cXn1ar2AxKvKXLteWuLSODg1ZNsYgRfUc0TWz831xQcR4GYkZweBxmBBHEmRz0x/Bm0AY6garpBofHfpgdfO47HebdbNizn98cdil5adjdy+wE=);lineShape=1;fontSize=6;" vertex="1" parent="1">
                    <mxGeometry x="201.1499037236831" y="85.32518856776181" width="0.31432784252973534" height="0.31529209520059" as="geometry"/>
                </mxCell>
                <mxCell id="34" value="" style="shape=stencil(lZbdctsgEIWfRrdngGWBvU7S98hMnFoT18447t/bd1WVxKBqFd9hzCfE2bNHDHT3tn983Q3BvV3Op5fdz/Hpsh/ofghhPO535/Gio4EeBrp7Pp13X8+n78en+ffr47RyGn07/Zie8GvmRCAyUcH9nmdyQY5/Z77MwGE8XgMFITZAYbAFEDw3gHgkWgf0eSG3QAKldSAzom8BQTCAFJFawDsH59YJjnDdFgUc1oEYkV0LREheBygjlVZXQTZ2IEJKLUAgbwKu1TUnRKNyxJD2lZKgGCrF0O+gSntLVlePWAFWPxreSL6vA2dkA8geJd8ClACfbnklcVWTTx5a3SzuFllF+h02CjfZv1VpsobhJWH4NgU2zFfKoqlte2uqlA6wGygtcmazRzNit4XqwIZdM7g99UbQkIrSpYBGmdWjsSbddVgaZqLQ23WK45sBwxvBLVIggIvhjVrXK3snSyT4tm7Mplnfi1rXx631XWRoTFlhz9UDdb3ORFlf77VVOuMlJAMIsRr53RUgK+m1d1pTEMQ6gL5Qa1OVwCiYpkn3ObT7piwU8vVT9H+B3KJkXPviH6CDjwvH83g4zPeV6//7C4pOzZcbevgD);lineShape=1;fontSize=6;" vertex="1" parent="1">
                    <mxGeometry x="203.8368694527868" y="83.9807528063823" width="0.28771669637956165" height="0.4535265848112715" as="geometry"/>
                </mxCell>
                <mxCell id="35" value="" style="shape=stencil(jVbLcsIwDPyaXHdsy88zpf/BDFAypcAAff195ckEkAOiNxO0kbRabdzR7LRZHFadM6fzcf+++u6X501HL51z/W6zOvZnPnU072i23h9Xb8f95245/D4samQ9fey/6ht+BlxMKKainPkdnhiY4cHrEL/tdzfxKcMmEe/gyuP4nEBRxGdkJb54BCvibYElBcDvywJAFsU/Blhz6XBE+IASlRQJSfYQCpJWk4OXGZJFdgpLHl6ymg1KUMbgkSVNOY6DuQuInIFaQFF6CL7tIROswhKTmJumA5wyCCoIEsBFGqsAuEU56mAQtQwMKFIbEeFJSZJWRyqt06atrr5Kq8zAPStjmM7NwClTqMJwsiCYJ8qTnEY4RXhV2s1+BlDWl6cxjDSK/d/7afWa2AJkisDKU1JUk2mUl2EUQHWxILWdQYpUq002tudRFAD7cJZS5ZxWMcqpcT8BsGd5LwBXGu5ru4xKvgCYaEV7NAHczPI+woziv6RIagpWf5I0sSCDpiaHFNpBeGVBI0hqKZHqkw5G9hwtotLBVNysJOX9pq2HPJJmYePX8rJuXI+yPCxUuc8FWQnnbW/6bSfMh+tlY91vt8Nd5fb/9nLCj4aLDc3/AA==);lineShape=1;fontSize=6;" vertex="1" parent="1">
                    <mxGeometry x="207.21010568174688" y="83.35156391475397" width="0.3132416143293426" height="0.2309653018418203" as="geometry"/>
                </mxCell>
                <mxCell id="36" value="" style="shape=stencil(lVbLcsIwDPyaXDV+SbbOlP4HM4SSKSUM0NffV2kmFCUgmptjayVrJW1cxcVpuzrUVXCn87F9rT+b9XlbxacqhGa/rY/NWVZVXFZxsWmP9cuxfd+v++/DqrPsVm/tR+fhq8flAjl1qOC++x0Hzv9uPPf2u2Z/ZV8QUNt7yHTfnj1QVPYEBQ17gkjaf4IcDQBD0ICQAPk+wDvJ0ClERIjFCFEAgwIkBDZCcALOCoAIwQAUhqwjUIAYDEAcji8AIS7dB2SClMYANnglhqJZogTOuJIcew3AbEZAHo4vtEotjTqIv6wBsZh1mAJCAT/rSj5DMWidJi0puDmsxsHBP8vmTP/TvnCQZzVegmKM/7SzvbfneTI7IhjeANwazwcSI5SjziEAztIYDJCsrEXERtPm7HkWlRypnkhMNupcxp1K2ezUqW4/AggnRQEy2wKQgDRLLJWxhgfHvcq21ouKJl24q+LfRIhQB91+bEtGkBCsAfI7sdqPgDSg0MDD7d4Y6nqhVUIaN4rAmlWSATI6Q+ZXly3JfYxenU6Ps3+HQNq/twlCyH4kMLpisvh7bGya3a5/q1yfjx8nstU/bOLyBw==);lineShape=1;fontSize=6;" vertex="1" parent="1">
                    <mxGeometry x="210.31649591616423" y="82.77967688645273" width="0.4535341344516155" height="0.2877195336784837" as="geometry"/>
                </mxCell>
                <mxCell id="37" value="" style="shape=stencil(lZbdUttADIWfxrdnpNX+XlN4D2YIjYc0YUKg5e3R1mOIlkSd3vnv88pHR8c7yc3L9v55MwV6OR0PT5vf88NpO8mPKYR5v90c55MeTXI7yc3j4bj5eTy87h+W8+f7/mQ/+nV462/4s3CNUEKnAr0vV2JCan+v3C3Abt6fAxmlGCAJWnWAhsoGyIKaXSCJAUoEeyUltGyAqis4QG2IFmiMFh1AVbIltYLE14FCyFYlJgLRdSITJNolGtiRKRGq7ZzqQE4jooBtI2oFO4BUkAVK84EMsrrmBhIHKGMjUkV1VIphXCGqW5zO6W1pFggITklaQK4G0CKzs0KuaMkCGSE53lARrZlU6OB8dG+TXUFbGfyBoGFG6V8zykPjCLFcB87c/OkNWoPh8hI6MBbQofJa3UdysGtbX3FZJh36YUg1GJySeqzYkr6i53KrBeXbjFYnBjQa6wBofHozmhCHoVZZHTN1QP4HkDima09Dx0whrm7+BBKyE0yc1rQ+i43ofHRBtW4tDHHaEMYwzrym7cXn1ar2AxKvKXLteWuLSODg1ZNsYgRfUc0TWz831xQcR4GYkZweBxmBBHEmRz0x/Bm0AY6garpBofHfpgdfO47HebdbNizn98cdil5adjdy+wE=);lineShape=1;fontSize=6;" vertex="1" parent="1">
                    <mxGeometry x="213.24590439506983" y="82.73318569910947" width="0.31432784252973534" height="0.31529209520059" as="geometry"/>
                </mxCell>
                <mxCell id="38" value="" style="shape=stencil(lVjZUhtBDPwav6rmHs0zIf9BFSa4QjBlyPX30calZaXdbYo3Y9Se0dVqzSHfvD7evRwPKby+Xc7fj79P92+Ph/zlkNLp+fF4Ob3Jp0O+PeSbh/Pl+O1y/vl8f/375W6ynD79OP+afuHPFdcptwmUwt/rF5Hy+P/F16v50+nZmNdhzBulum/O1K050+j75jFQyvY2kUYAgEQ1WUChAS4UK1W2AKaMAIOKvZJEqPE+IGVq1udUKYATJCY1WgBTBFHKcoIF5EBcAECibpMsP1FBlkuhVi2gUQCAGii6E8QHcKUqebBhzYM47QNa0LwqoOBKbY3YXqkkauBKPVO2pVEyMTiBg6ZpBlSKwAfuFBygweIbmWKwgE4tA4D0pzthUAZOxxAo2CNq1p7aPqL5DqpNf2IbECnacq2sbm2HqVCwTS3JD8DrXn1ttEgM4tqYkg1Ty9QRIFK1UWpVm3CvvqMjyo5bblBzTg94Jak150MXrkQnxBWgUAFMlrty7wzo6tU2oPhyfW+RbUCgbq/EGdbSNH9s8XHTntoGyDiwxceDEmiIFL3TQ2YMnijdJm4M6EOcSWIBKKC8ZaSlFaA3AFjRhgDgVJR2sXlY8MLepG7sj2BQTEO5d2GPmIz9jcQeKw03pof8AiIZHR4L+wwaWpSMu3+HM1dSurIvKAVh5UDXmbqXsxY8IAAPRCvx6oQAmF7KaPDqSiDHk/ZaO40A1SuZKaqAYQQwXCuwCtg9gHea4WgQgBPEUngZdUJRelhWNu7OMjzgA5GbnGb9qDujFxrTEbBax8rpjnSGqsFlkJBU8mpPsoAIiVdJkP4GNM9+LEgdoVn4Wfspyc7hqC5tA7rvf2bN4vbcWYlJkUGIUGXPKLYVOEJGlVWNbaH2mdT2prOrbBFaEFBUa86ARB1QkiwJbPtfRM8ATosid+O8YVqVxcR1QsPbmIjZ7k5Iyjnb0jCvhFuAtS0yLduwih5Gq4+kyRWfXBJFSSqn2PYROYqKb6ymeU34BPa0KoGuqEGz1uZyMQGA3vyVCusesZ2HWS4vliu4USbtr8X6VgBxS9Sj8yFD4paYeKcT1MNygWCLrwSoVmVpzrb4JtGONL0suW7vltIAzJdmYpwBSXehbUDy/TBpP6RLulL7DGhQisk8dOteSpAqheasUooDioaqx8/2wnuIiv3KIDcsyAFqbjrDVgh6+PubG7r9aqGPcJ9fEWSEJRo8eQVlgh1zTs4cjk1PXAEXp38uDJAiZLdkZ44Ec9a3yoU5KPyi+8DCHASy+oUo6Ja3zVa+b4MKjB1z9oHsaMRQchUPh+SnH40/MJcP7+/TD6enp+vz9vL//j1bvrq+hefbfw==);lineShape=1;fontSize=6;" vertex="1" parent="1">
                    <mxGeometry x="212.43856334154765" y="80.3430086369043" width="2.3228776660545236" height="5.857402433848051" as="geometry"/>
                </mxCell>
                <mxCell id="39" value="lvl1" style="text;html=1;align=center;verticalAlign=middle;resizable=0;points=[];autosize=1;strokeColor=none;fillColor=none;fontSize=6;" vertex="1" parent="1">
                    <mxGeometry x="215" y="70" width="30" height="20" as="geometry"/>
                </mxCell>
                <mxCell id="40" value="lvl1" style="text;html=1;align=center;verticalAlign=middle;resizable=0;points=[];autosize=1;strokeColor=none;fillColor=none;fontSize=6;" vertex="1" parent="1">
                    <mxGeometry x="174.64" y="143.88" width="30" height="20" as="geometry"/>
                </mxCell>
                <mxCell id="41" value="lvl1" style="text;html=1;align=center;verticalAlign=middle;resizable=0;points=[];autosize=1;strokeColor=none;fillColor=none;fontSize=6;" vertex="1" parent="1">
                    <mxGeometry x="219.69" y="105.67" width="30" height="20" as="geometry"/>
                </mxCell>
                <mxCell id="42" value="lvl1" style="text;html=1;align=center;verticalAlign=middle;resizable=0;points=[];autosize=1;strokeColor=none;fillColor=none;fontSize=6;" vertex="1" parent="1">
                    <mxGeometry x="90" y="107.18" width="30" height="20" as="geometry"/>
                </mxCell>
                <mxCell id="43" value="lvl1" style="text;html=1;align=center;verticalAlign=middle;resizable=0;points=[];autosize=1;strokeColor=none;fillColor=none;fontSize=6;" vertex="1" parent="1">
                    <mxGeometry x="152.72" y="143.88" width="30" height="20" as="geometry"/>
                </mxCell>
                <mxCell id="44" value="lvl1" style="text;html=1;align=center;verticalAlign=middle;resizable=0;points=[];autosize=1;strokeColor=none;fillColor=none;fontSize=6;" vertex="1" parent="1">
                    <mxGeometry x="93.5" y="68.75999999999999" width="30" height="20" as="geometry"/>
                </mxCell>
                <mxCell id="45" value="lvl1" style="text;html=1;align=center;verticalAlign=middle;resizable=0;points=[];autosize=1;strokeColor=none;fillColor=none;fontSize=6;" vertex="1" parent="1">
                    <mxGeometry x="150.34" y="25.400000000000006" width="30" height="20" as="geometry"/>
                </mxCell>
                <mxCell id="46" value="lvl1" style="text;html=1;align=center;verticalAlign=middle;resizable=0;points=[];autosize=1;strokeColor=none;fillColor=none;fontSize=6;" vertex="1" parent="1">
                    <mxGeometry x="181.73000000000002" y="25.400000000000006" width="30" height="20" as="geometry"/>
                </mxCell>
            </root>
        </mxGraphModel>
    </diagram>
</mxfile>